<svg width="303" height="95" viewBox="0 0 303 95" fill="none" xmlns="http://www.w3.org/2000/svg">
<path d="M25 2H278C290.703 2 301 12.2975 301 25V70C301 82.7025 290.703 93 278 93H25C12.2975 93 2 82.7025 2 70V25C2 12.2975 12.2975 2 25 2Z" fill="white" stroke="#515050" stroke-width="4" stroke-linecap="round" stroke-linejoin="round"/>
<path d="M75.95 61L74.05 55.376H63.866L62.004 61H56.57L65.424 34.856H72.682L81.536 61H75.95ZM69.034 39.948H68.844L65.31 50.664H72.606L69.034 39.948ZM85.2419 34.856H98.0099C100.543 34.856 102.405 35.4133 103.596 36.528C104.787 37.6173 105.382 39.2513 105.382 41.43C105.382 43.254 105.027 44.6473 104.318 45.61C103.609 46.5727 102.469 47.2313 100.898 47.586V47.738C102.621 48.0927 103.837 48.7513 104.546 49.714C105.281 50.6767 105.648 52.1207 105.648 54.046C105.648 56.3007 105.065 58.0233 103.9 59.214C102.76 60.4047 100.797 61 98.0099 61H85.2419V34.856ZM96.0719 45.458C97.5412 45.458 98.5419 45.2553 99.0739 44.85C99.6312 44.4193 99.9099 43.6467 99.9099 42.532C99.9099 41.696 99.8086 41.0753 99.6059 40.67C99.4032 40.2393 99.0359 39.948 98.5039 39.796C97.9719 39.6187 97.1612 39.53 96.0719 39.53H90.6379V45.458H96.0719ZM96.2619 56.326C97.3259 56.326 98.1366 56.2373 98.6939 56.06C99.2512 55.8827 99.6312 55.5787 99.8339 55.148C100.062 54.7173 100.176 54.084 100.176 53.248C100.176 52.412 100.062 51.7787 99.8339 51.348C99.6059 50.892 99.2132 50.5753 98.6559 50.398C98.1239 50.2207 97.3259 50.132 96.2619 50.132H90.6379V56.326H96.2619ZM121.294 61.304C117.722 61.304 115.176 60.924 113.656 60.164C112.136 59.404 111.173 58.1627 110.768 56.44C110.388 54.7173 110.198 51.88 110.198 47.928C110.198 43.976 110.388 41.1387 110.768 39.416C111.173 37.6933 112.136 36.452 113.656 35.692C115.176 34.932 117.722 34.552 121.294 34.552C124.866 34.552 127.412 34.932 128.932 35.692C130.477 36.452 131.44 37.6933 131.82 39.416C132.225 41.1387 132.428 43.976 132.428 47.928C132.428 51.88 132.225 54.7173 131.82 56.44C131.44 58.1627 130.477 59.404 128.932 60.164C127.412 60.924 124.866 61.304 121.294 61.304ZM121.294 56.63C123.295 56.63 124.638 56.4907 125.322 56.212C126.031 55.9333 126.474 55.262 126.652 54.198C126.854 53.1087 126.956 51.0187 126.956 47.928C126.956 44.8373 126.854 42.76 126.652 41.696C126.474 40.6067 126.031 39.9227 125.322 39.644C124.638 39.3653 123.295 39.226 121.294 39.226C119.292 39.226 117.95 39.3653 117.266 39.644C116.582 39.9227 116.138 40.6067 115.936 41.696C115.733 42.7853 115.632 44.8627 115.632 47.928C115.632 50.9933 115.733 53.0707 115.936 54.16C116.138 55.2493 116.582 55.9333 117.266 56.212C117.95 56.4907 119.292 56.63 121.294 56.63ZM158.305 34.856V49.296C158.305 52.7667 158.077 55.3127 157.621 56.934C157.191 58.53 156.266 59.6573 154.847 60.316C153.429 60.9747 151.149 61.304 148.007 61.304C144.866 61.304 142.586 60.9747 141.167 60.316C139.749 59.6573 138.811 58.53 138.355 56.934C137.899 55.3127 137.671 52.7667 137.671 49.296V34.856H143.067V50.664C143.067 52.6147 143.156 53.97 143.333 54.73C143.511 55.49 143.929 56.0093 144.587 56.288C145.246 56.5667 146.386 56.706 148.007 56.706C149.654 56.706 150.794 56.5667 151.427 56.288C152.086 56.0093 152.491 55.49 152.643 54.73C152.821 53.97 152.909 52.6147 152.909 50.664V34.856H158.305ZM169.602 61V39.758H162.002V34.856H182.598V39.758H174.998V61H169.602ZM217.918 61V43.14H217.728L210.964 61H207.24L200.514 43.14H200.324V61H195.27V34.856H202.718L209.102 51.614H209.33L215.714 34.856H223.124V61H217.918ZM229.412 61V34.856H247.386V39.53H234.808V45.458H245.6V50.132H234.808V56.326H247.386V61H229.412Z" fill="#515050"/>
</svg>
