<svg width="544" height="95" viewBox="0 0 544 95" fill="none" xmlns="http://www.w3.org/2000/svg">
<path d="M25 3H519C531.15 3 541 12.8497 541 25V70C541 82.1503 531.15 92 519 92H25C12.8497 92 3 82.1503 3 70V25C3 12.8497 12.8497 3 25 3Z" fill="#515050" stroke="white" stroke-width="6" stroke-linecap="round" stroke-linejoin="round"/>
<path d="M57.154 35.856H69.922C72.4553 35.856 74.3173 36.4133 75.508 37.528C76.6987 38.6173 77.294 40.2513 77.294 42.43C77.294 44.254 76.9393 45.6473 76.23 46.61C75.5207 47.5727 74.3807 48.2313 72.81 48.586V48.738C74.5327 49.0927 75.7487 49.7513 76.458 50.714C77.1927 51.6767 77.56 53.1207 77.56 55.046C77.56 57.3007 76.9773 59.0233 75.812 60.214C74.672 61.4047 72.7087 62 69.922 62H57.154V35.856ZM67.984 46.458C69.4533 46.458 70.454 46.2553 70.986 45.85C71.5433 45.4193 71.822 44.6467 71.822 43.532C71.822 42.696 71.7207 42.0753 71.518 41.67C71.3153 41.2393 70.948 40.948 70.416 40.796C69.884 40.6187 69.0733 40.53 67.984 40.53H62.55V46.458H67.984ZM68.174 57.326C69.238 57.326 70.0487 57.2373 70.606 57.06C71.1633 56.8827 71.5433 56.5787 71.746 56.148C71.974 55.7173 72.088 55.084 72.088 54.248C72.088 53.412 71.974 52.7787 71.746 52.348C71.518 51.892 71.1253 51.5753 70.568 51.398C70.036 51.2207 69.238 51.132 68.174 51.132H62.55V57.326H68.174ZM103.276 35.856V50.296C103.276 53.7667 103.048 56.3127 102.592 57.934C102.161 59.53 101.237 60.6573 99.8179 61.316C98.3992 61.9747 96.1192 62.304 92.9779 62.304C89.8366 62.304 87.5566 61.9747 86.1379 61.316C84.7192 60.6573 83.7819 59.53 83.3259 57.934C82.8699 56.3127 82.6419 53.7667 82.6419 50.296V35.856H88.0379V51.664C88.0379 53.6147 88.1266 54.97 88.3039 55.73C88.4812 56.49 88.8992 57.0093 89.5579 57.288C90.2166 57.5667 91.3566 57.706 92.9779 57.706C94.6246 57.706 95.7646 57.5667 96.3979 57.288C97.0566 57.0093 97.4619 56.49 97.6139 55.73C97.7912 54.97 97.8799 53.6147 97.8799 51.664V35.856H103.276ZM109.329 62V35.856H114.725V62H109.329ZM120.982 62V35.856H126.378V57.098H137.436V62H120.982ZM141.541 35.856H150.433C154.182 35.856 156.855 36.236 158.451 36.996C160.072 37.7307 161.085 38.934 161.491 40.606C161.896 42.278 162.099 45.052 162.099 48.928C162.099 52.804 161.896 55.578 161.491 57.25C161.085 58.922 160.072 60.138 158.451 60.898C156.855 61.6327 154.182 62 150.433 62H141.541V35.856ZM150.167 57.326C152.472 57.326 154.017 57.1993 154.803 56.946C155.588 56.6927 156.082 56.0467 156.285 55.008C156.513 53.9693 156.627 51.9427 156.627 48.928C156.627 45.9387 156.513 43.9247 156.285 42.886C156.057 41.822 155.55 41.1633 154.765 40.91C154.005 40.6567 152.472 40.53 150.167 40.53H146.937V57.326H150.167ZM167.554 62V35.856H172.95V62H167.554ZM195.205 62L184.527 45.394H184.375V62H179.169V35.856H184.755L194.977 51.512H195.167V35.856H200.373V62H195.205ZM216.587 51.512V47.028H226.049V61.43C224.707 61.6833 223.225 61.886 221.603 62.038C219.982 62.2153 218.551 62.304 217.309 62.304C214.016 62.304 211.571 61.962 209.975 61.278C208.405 60.5687 207.315 59.2893 206.707 57.44C206.099 55.5907 205.795 52.7533 205.795 48.928C205.795 45.3053 206.099 42.5693 206.707 40.72C207.315 38.8453 208.43 37.5153 210.051 36.73C211.673 35.9447 214.092 35.552 217.309 35.552C218.475 35.552 219.615 35.6153 220.729 35.742C221.869 35.8687 223.237 36.046 224.833 36.274L225.935 36.426V40.796L224.529 40.644C222.123 40.3653 220.425 40.226 219.437 40.226C216.752 40.226 214.89 40.3653 213.851 40.644C212.838 40.9227 212.141 41.6447 211.761 42.81C211.407 43.95 211.229 45.9893 211.229 48.928C211.229 51.588 211.369 53.5133 211.647 54.704C211.926 55.8693 212.483 56.6673 213.319 57.098C214.181 57.5287 215.574 57.744 217.499 57.744C218.918 57.744 220.045 57.706 220.881 57.63V51.512H216.587ZM246.608 62V40.758H239.008V35.856H259.604V40.758H252.004V62H246.608ZM279.213 62V51.284H268.877V62H263.481V35.856H268.877V46.42H279.213V35.856H284.647V62H279.213ZM290.869 62V35.856H308.843V40.53H296.265V46.458H307.057V51.132H296.265V57.326H308.843V62H290.869ZM323.488 35.856H335.534C337.713 35.856 339.385 36.198 340.55 36.882C341.715 37.566 342.501 38.5287 342.906 39.77C343.311 41.0113 343.514 42.6073 343.514 44.558C343.514 46.4327 343.311 47.9907 342.906 49.232C342.526 50.4733 341.741 51.4613 340.55 52.196C339.359 52.9307 337.649 53.298 335.42 53.298H328.884V62H323.488V35.856ZM333.216 48.624C334.736 48.624 335.825 48.5227 336.484 48.32C337.143 48.1173 337.573 47.75 337.776 47.218C337.979 46.6607 338.08 45.774 338.08 44.558C338.08 43.342 337.979 42.468 337.776 41.936C337.599 41.404 337.181 41.0367 336.522 40.834C335.889 40.6313 334.812 40.53 333.292 40.53H328.884V48.624H333.216ZM363.327 62L359.489 52.538H353.599V62H348.203V35.856H360.515C362.769 35.856 364.479 36.198 365.645 36.882C366.835 37.5407 367.621 38.4653 368.001 39.656C368.406 40.8213 368.609 42.3287 368.609 44.178C368.609 48.3073 367.367 50.8533 364.885 51.816L369.065 62H363.327ZM358.349 47.864C359.818 47.864 360.882 47.7627 361.541 47.56C362.225 47.3573 362.655 47.0153 362.833 46.534C363.035 46.0273 363.137 45.242 363.137 44.178C363.137 43.0887 363.035 42.3033 362.833 41.822C362.655 41.3407 362.237 41.0113 361.579 40.834C360.945 40.6313 359.881 40.53 358.387 40.53H353.599V47.864H358.349ZM384.292 62.304C380.72 62.304 378.174 61.924 376.654 61.164C375.134 60.404 374.171 59.1627 373.766 57.44C373.386 55.7173 373.196 52.88 373.196 48.928C373.196 44.976 373.386 42.1387 373.766 40.416C374.171 38.6933 375.134 37.452 376.654 36.692C378.174 35.932 380.72 35.552 384.292 35.552C387.864 35.552 390.41 35.932 391.93 36.692C393.475 37.452 394.438 38.6933 394.818 40.416C395.223 42.1387 395.426 44.976 395.426 48.928C395.426 52.88 395.223 55.7173 394.818 57.44C394.438 59.1627 393.475 60.404 391.93 61.164C390.41 61.924 387.864 62.304 384.292 62.304ZM384.292 57.63C386.293 57.63 387.636 57.4907 388.32 57.212C389.029 56.9333 389.473 56.262 389.65 55.198C389.853 54.1087 389.954 52.0187 389.954 48.928C389.954 45.8373 389.853 43.76 389.65 42.696C389.473 41.6067 389.029 40.9227 388.32 40.644C387.636 40.3653 386.293 40.226 384.292 40.226C382.291 40.226 380.948 40.3653 380.264 40.644C379.58 40.9227 379.137 41.6067 378.934 42.696C378.731 43.7853 378.63 45.8627 378.63 48.928C378.63 51.9933 378.731 54.0707 378.934 55.16C379.137 56.2493 379.58 56.9333 380.264 57.212C380.948 57.4907 382.291 57.63 384.292 57.63ZM398.769 57.668C400.669 57.6427 401.961 57.5287 402.645 57.326C403.329 57.1233 403.747 56.6927 403.899 56.034C404.077 55.35 404.165 54.0327 404.165 52.082V35.856H409.599V50.562C409.599 54.5647 409.409 57.2753 409.029 58.694C408.649 60.1127 407.788 61.012 406.445 61.392C405.128 61.772 402.569 61.9747 398.769 62V57.668ZM415.668 62V35.856H433.642V40.53H421.064V46.458H431.856V51.132H421.064V57.326H433.642V62H415.668ZM455.731 61.696C454.87 61.8733 453.806 62.0127 452.539 62.114C451.298 62.2407 450.145 62.304 449.081 62.304C445.864 62.304 443.483 61.9113 441.937 61.126C440.417 60.3407 439.404 59.036 438.897 57.212C438.391 55.388 438.137 52.6267 438.137 48.928C438.137 45.28 438.391 42.544 438.897 40.72C439.404 38.8707 440.417 37.5533 441.937 36.768C443.483 35.9573 445.864 35.552 449.081 35.552C450.171 35.552 451.323 35.6153 452.539 35.742C453.755 35.8687 454.769 36.0333 455.579 36.236V40.606C453.375 40.3527 451.665 40.226 450.449 40.226C448.144 40.226 446.548 40.4033 445.661 40.758C444.775 41.0873 444.205 41.8093 443.951 42.924C443.698 44.0387 443.571 46.04 443.571 48.928C443.571 51.816 443.698 53.8173 443.951 54.932C444.205 56.0467 444.775 56.7813 445.661 57.136C446.548 57.4653 448.144 57.63 450.449 57.63C452.375 57.63 454.135 57.5033 455.731 57.25V61.696ZM465.924 62V40.758H458.324V35.856H478.92V40.758H471.32V62H465.924Z" fill="white"/>
</svg>
