<svg width="259" height="95" viewBox="0 0 259 95" fill="none" xmlns="http://www.w3.org/2000/svg">
<path d="M25 3H234C246.15 3 256 12.8497 256 25V70C256 82.1503 246.15 92 234 92H25C12.8497 92 3 82.1503 3 70V25C3 12.8497 12.8497 3 25 3Z" fill="#515050" stroke="white" stroke-width="6" stroke-linecap="round" stroke-linejoin="round"/>
<path d="M59.154 61V34.856H64.55V56.098H75.608V61H59.154ZM79.6746 61V34.856H85.0706V61H79.6746ZM108.124 60.696C107.262 60.8733 106.198 61.0127 104.932 61.114C103.69 61.2407 102.538 61.304 101.474 61.304C98.2565 61.304 95.8752 60.9113 94.3298 60.126C92.8098 59.3407 91.7965 58.036 91.2898 56.212C90.7832 54.388 90.5298 51.6267 90.5298 47.928C90.5298 44.28 90.7832 41.544 91.2898 39.72C91.7965 37.8707 92.8098 36.5533 94.3298 35.768C95.8752 34.9573 98.2565 34.552 101.474 34.552C102.563 34.552 103.716 34.6153 104.932 34.742C106.148 34.8687 107.161 35.0333 107.972 35.236V39.606C105.768 39.3527 104.058 39.226 102.842 39.226C100.536 39.226 98.9405 39.4033 98.0538 39.758C97.1672 40.0873 96.5972 40.8093 96.3438 41.924C96.0905 43.0387 95.9638 45.04 95.9638 47.928C95.9638 50.816 96.0905 52.8173 96.3438 53.932C96.5972 55.0467 97.1672 55.7813 98.0538 56.136C98.9405 56.4653 100.536 56.63 102.842 56.63C104.767 56.63 106.528 56.5033 108.124 56.25V60.696ZM113.111 61V34.856H131.085V39.53H118.507V45.458H129.299V50.132H118.507V56.326H131.085V61H113.111ZM152.377 61L141.699 44.394H141.547V61H136.341V34.856H141.927L152.149 50.512H152.339V34.856H157.545V61H152.377ZM172.961 61.304C169.237 61.304 166.045 61.1013 163.385 60.696V56.174C166.501 56.478 169.161 56.63 171.365 56.63C172.657 56.63 173.658 56.5793 174.367 56.478C175.102 56.3513 175.647 56.1487 176.001 55.87C176.331 55.6167 176.533 55.3127 176.609 54.958C176.711 54.6033 176.761 54.0967 176.761 53.438C176.761 52.7033 176.711 52.1713 176.609 51.842C176.508 51.4873 176.305 51.234 176.001 51.082C175.697 50.9047 175.191 50.778 174.481 50.702L168.895 50.056C167.223 49.828 165.931 49.3973 165.019 48.764C164.107 48.1053 163.474 47.2693 163.119 46.256C162.79 45.2173 162.625 43.938 162.625 42.418C162.625 40.1887 163.031 38.504 163.841 37.364C164.652 36.1987 165.741 35.4387 167.109 35.084C168.477 34.7293 170.238 34.552 172.391 34.552C175.71 34.552 178.547 34.8053 180.903 35.312V39.72C178.446 39.3907 175.976 39.226 173.493 39.226C171.213 39.226 169.706 39.416 168.971 39.796C168.566 39.9987 168.313 40.2647 168.211 40.594C168.11 40.9233 168.059 41.4173 168.059 42.076C168.059 42.836 168.11 43.3807 168.211 43.71C168.313 44.0393 168.528 44.28 168.857 44.432C169.212 44.5587 169.795 44.6727 170.605 44.774L176.609 45.496C177.775 45.6227 178.737 45.8633 179.497 46.218C180.257 46.5473 180.853 47.1047 181.283 47.89C181.891 48.9793 182.195 50.664 182.195 52.944C182.195 55.3507 181.815 57.162 181.055 58.378C180.295 59.594 179.269 60.392 177.977 60.772C176.711 61.1267 175.039 61.304 172.961 61.304ZM187.404 61V34.856H205.378V39.53H192.8V45.458H203.592V50.132H192.8V56.326H205.378V61H187.404Z" fill="white"/>
</svg>
