<svg 
  width="600" 
  height="218" 
  viewBox="0 0 600 218" 
  fill="none" 
  xmlns="http://www.w3.org/2000/svg"
>
  <path 
    d="M25 2H575C587.703 2 598 12.2975 598 25V193C598 205.703 587.703 216 575 216H25C12.2975 216 2 205.703 2 193V25C2 12.2975 12.2975 2 25 2Z" 
    fill="white" 
    stroke="#515050" 
    stroke-width="4" 
    stroke-linecap="round" 
    stroke-linejoin="round"
  />
  <path 
    d="M88.284 143L65.254 75.576H76.72L95.438 130.26H95.928L114.548 75.576H125.72L102.788 143H88.284ZM177.473 143L171.495 126.732H142.977L137.195 143H126.023L150.229 75.576H164.635L188.841 143H177.473ZM157.481 86.748H156.991L146.211 116.834H168.261L157.481 86.748ZM199.971 143V75.576H211.045V132.71H241.033V143H199.971ZM278.767 143.784C269.751 143.784 263.316 142.869 259.461 141.04C255.672 139.145 253.254 135.977 252.209 131.534C251.164 127.091 250.641 119.676 250.641 109.288C250.641 98.9 251.164 91.4847 252.209 87.042C253.254 82.5993 255.672 79.4633 259.461 77.634C263.316 75.7393 269.751 74.792 278.767 74.792C287.783 74.792 294.218 75.7393 298.073 77.634C301.928 79.4633 304.378 82.632 305.423 87.14C306.468 91.5827 306.991 98.9653 306.991 109.288C306.991 119.611 306.468 127.026 305.423 131.534C304.378 135.977 301.928 139.145 298.073 141.04C294.218 142.869 287.783 143.784 278.767 143.784ZM278.767 133.788C284.778 133.788 288.828 133.396 290.919 132.612C293.01 131.828 294.349 129.901 294.937 126.83C295.59 123.759 295.917 117.912 295.917 109.288C295.917 100.664 295.59 94.8167 294.937 91.746C294.349 88.6753 293.01 86.748 290.919 85.964C288.828 85.18 284.778 84.788 278.767 84.788C272.756 84.788 268.706 85.18 266.615 85.964C264.59 86.748 263.25 88.6753 262.597 91.746C262.009 94.8167 261.715 100.664 261.715 109.288C261.715 117.912 262.009 123.759 262.597 126.83C263.25 129.901 264.59 131.828 266.615 132.612C268.706 133.396 272.756 133.788 278.767 133.788ZM363.134 143L353.138 117.52H352.942H333.832V143H322.758V75.576H354.216C359.704 75.576 363.853 76.4253 366.662 78.124C369.537 79.7573 371.432 82.0767 372.346 85.082C373.326 88.022 373.816 91.844 373.816 96.548C373.816 101.056 373.13 105.107 371.758 108.7C370.452 112.228 367.806 114.678 363.82 116.05L374.894 143H363.134ZM349.61 107.622C353.596 107.622 356.503 107.295 358.332 106.642C360.227 105.923 361.436 104.813 361.958 103.31C362.481 101.807 362.742 99.5533 362.742 96.548C362.742 93.412 362.481 91.1253 361.958 89.688C361.501 88.2507 360.39 87.2053 358.626 86.552C356.862 85.8987 353.988 85.572 350.002 85.572H333.832V107.622H349.61ZM389.368 143V75.576H400.442V143H389.368ZM414.25 143V133.494L449.922 85.572H415.328V75.576H463.936V84.788L428.068 133.102H464.426V143H414.25ZM522.77 143L516.792 126.732H488.274L482.492 143H471.32L495.526 75.576H509.932L534.138 143H522.77ZM502.778 86.748H502.288L491.508 116.834H513.558L502.778 86.748Z" 
    fill="#515050"
  />
</svg>
