<svg width="270" height="95" viewBox="0 0 270 95" fill="none" xmlns="http://www.w3.org/2000/svg">
<path d="M25 2H245C257.703 2 268 12.2975 268 25V70C268 82.7025 257.703 93 245 93H25C12.2975 93 2 82.7025 2 70V25C2 12.2975 12.2975 2 25 2Z" fill="white" stroke="#515050" stroke-width="4" stroke-linecap="round" stroke-linejoin="round"/>
<path d="M62.35 61.304C58.626 61.304 55.434 61.1013 52.774 60.696V56.174C55.89 56.478 58.55 56.63 60.754 56.63C62.046 56.63 63.0467 56.5793 63.756 56.478C64.4907 56.3513 65.0353 56.1487 65.39 55.87C65.7193 55.6167 65.922 55.3127 65.998 54.958C66.0993 54.6033 66.15 54.0967 66.15 53.438C66.15 52.7033 66.0993 52.1713 65.998 51.842C65.8967 51.4873 65.694 51.234 65.39 51.082C65.086 50.9047 64.5793 50.778 63.87 50.702L58.284 50.056C56.612 49.828 55.32 49.3973 54.408 48.764C53.496 48.1053 52.8627 47.2693 52.508 46.256C52.1787 45.2173 52.014 43.938 52.014 42.418C52.014 40.1887 52.4193 38.504 53.23 37.364C54.0407 36.1987 55.13 35.4387 56.498 35.084C57.866 34.7293 59.6267 34.552 61.78 34.552C65.0987 34.552 67.936 34.8053 70.292 35.312V39.72C67.8347 39.3907 65.3647 39.226 62.882 39.226C60.602 39.226 59.0947 39.416 58.36 39.796C57.9547 39.9987 57.7013 40.2647 57.6 40.594C57.4987 40.9233 57.448 41.4173 57.448 42.076C57.448 42.836 57.4987 43.3807 57.6 43.71C57.7013 44.0393 57.9167 44.28 58.246 44.432C58.6007 44.5587 59.1833 44.6727 59.994 44.774L65.998 45.496C67.1633 45.6227 68.126 45.8633 68.886 46.218C69.646 46.5473 70.2413 47.1047 70.672 47.89C71.28 48.9793 71.584 50.664 71.584 52.944C71.584 55.3507 71.204 57.162 70.444 58.378C69.684 59.594 68.658 60.392 67.366 60.772C66.0993 61.1267 64.4273 61.304 62.35 61.304ZM93.5887 60.696C92.7273 60.8733 91.6633 61.0127 90.3967 61.114C89.1553 61.2407 88.0027 61.304 86.9387 61.304C83.7213 61.304 81.34 60.9113 79.7947 60.126C78.2747 59.3407 77.2613 58.036 76.7547 56.212C76.248 54.388 75.9947 51.6267 75.9947 47.928C75.9947 44.28 76.248 41.544 76.7547 39.72C77.2613 37.8707 78.2747 36.5533 79.7947 35.768C81.34 34.9573 83.7213 34.552 86.9387 34.552C88.028 34.552 89.1807 34.6153 90.3967 34.742C91.6127 34.8687 92.626 35.0333 93.4367 35.236V39.606C91.2327 39.3527 89.5227 39.226 88.3067 39.226C86.0013 39.226 84.4053 39.4033 83.5187 39.758C82.632 40.0873 82.062 40.8093 81.8087 41.924C81.5553 43.0387 81.4287 45.04 81.4287 47.928C81.4287 50.816 81.5553 52.8173 81.8087 53.932C82.062 55.0467 82.632 55.7813 83.5187 56.136C84.4053 56.4653 86.0013 56.63 88.3067 56.63C90.232 56.63 91.9927 56.5033 93.5887 56.25V60.696ZM113.7 61L109.862 51.538H103.972V61H98.5759V34.856H110.888C113.143 34.856 114.853 35.198 116.018 35.882C117.209 36.5407 117.994 37.4653 118.374 38.656C118.779 39.8213 118.982 41.3287 118.982 43.178C118.982 47.3073 117.741 49.8533 115.258 50.816L119.438 61H113.7ZM108.722 46.864C110.191 46.864 111.255 46.7627 111.914 46.56C112.598 46.3573 113.029 46.0153 113.206 45.534C113.409 45.0273 113.51 44.242 113.51 43.178C113.51 42.0887 113.409 41.3033 113.206 40.822C113.029 40.3407 112.611 40.0113 111.952 39.834C111.319 39.6313 110.255 39.53 108.76 39.53H103.972V46.864H108.722ZM124.367 61V34.856H142.341V39.53H129.763V45.458H140.555V50.132H129.763V56.326H142.341V61H124.367ZM147.634 61V34.856H165.608V39.53H153.03V45.458H163.822V50.132H153.03V56.326H165.608V61H147.634ZM186.9 61L176.222 44.394H176.07V61H170.864V34.856H176.45L186.672 50.512H186.862V34.856H192.068V61H186.9ZM207.485 61.304C203.761 61.304 200.569 61.1013 197.909 60.696V56.174C201.025 56.478 203.685 56.63 205.889 56.63C207.181 56.63 208.181 56.5793 208.891 56.478C209.625 56.3513 210.17 56.1487 210.525 55.87C210.854 55.6167 211.057 55.3127 211.133 54.958C211.234 54.6033 211.285 54.0967 211.285 53.438C211.285 52.7033 211.234 52.1713 211.133 51.842C211.031 51.4873 210.829 51.234 210.525 51.082C210.221 50.9047 209.714 50.778 209.005 50.702L203.419 50.056C201.747 49.828 200.455 49.3973 199.543 48.764C198.631 48.1053 197.997 47.2693 197.643 46.256C197.313 45.2173 197.149 43.938 197.149 42.418C197.149 40.1887 197.554 38.504 198.365 37.364C199.175 36.1987 200.265 35.4387 201.633 35.084C203.001 34.7293 204.761 34.552 206.915 34.552C210.233 34.552 213.071 34.8053 215.427 35.312V39.72C212.969 39.3907 210.499 39.226 208.017 39.226C205.737 39.226 204.229 39.416 203.495 39.796C203.089 39.9987 202.836 40.2647 202.735 40.594C202.633 40.9233 202.583 41.4173 202.583 42.076C202.583 42.836 202.633 43.3807 202.735 43.71C202.836 44.0393 203.051 44.28 203.381 44.432C203.735 44.5587 204.318 44.6727 205.129 44.774L211.133 45.496C212.298 45.6227 213.261 45.8633 214.021 46.218C214.781 46.5473 215.376 47.1047 215.807 47.89C216.415 48.9793 216.719 50.664 216.719 52.944C216.719 55.3507 216.339 57.162 215.579 58.378C214.819 59.594 213.793 60.392 212.501 60.772C211.234 61.1267 209.562 61.304 207.485 61.304Z" fill="#515050"/>
</svg>
