<svg width="403" height="95" viewBox="0 0 403 95" fill="none" xmlns="http://www.w3.org/2000/svg">
<path d="M25 3H378C390.15 3 400 12.8497 400 25V70C400 82.1503 390.15 92 378 92H25C12.8497 92 3 82.1503 3 70V25C3 12.8497 12.8497 3 25 3Z" fill="#515050" stroke="white" stroke-width="6" stroke-linecap="round" stroke-linejoin="round"/>
<path d="M64.36 61V39.758H56.76V34.856H77.356V39.758H69.756V61H64.36ZM81.2712 61V34.856H99.2452V39.53H86.6672V45.458H97.4592V50.132H86.6672V56.326H99.2452V61H81.2712ZM121.335 60.696C120.473 60.8733 119.409 61.0127 118.143 61.114C116.901 61.2407 115.749 61.304 114.685 61.304C111.467 61.304 109.086 60.9113 107.541 60.126C106.021 59.3407 105.007 58.036 104.501 56.212C103.994 54.388 103.741 51.6267 103.741 47.928C103.741 44.28 103.994 41.544 104.501 39.72C105.007 37.8707 106.021 36.5533 107.541 35.768C109.086 34.9573 111.467 34.552 114.685 34.552C115.774 34.552 116.927 34.6153 118.143 34.742C119.359 34.8687 120.372 35.0333 121.183 35.236V39.606C118.979 39.3527 117.269 39.226 116.053 39.226C113.747 39.226 112.151 39.4033 111.265 39.758C110.378 40.0873 109.808 40.8093 109.555 41.924C109.301 43.0387 109.175 45.04 109.175 47.928C109.175 50.816 109.301 52.8173 109.555 53.932C109.808 55.0467 110.378 55.7813 111.265 56.136C112.151 56.4653 113.747 56.63 116.053 56.63C117.978 56.63 119.739 56.5033 121.335 56.25V60.696ZM142.016 61V50.284H131.68V61H126.284V34.856H131.68V45.42H142.016V34.856H147.45V61H142.016ZM169.67 61L158.992 44.394H158.84V61H153.634V34.856H159.22L169.442 50.512H169.632V34.856H174.838V61H169.67ZM191.356 61.304C187.784 61.304 185.238 60.924 183.718 60.164C182.198 59.404 181.236 58.1627 180.83 56.44C180.45 54.7173 180.26 51.88 180.26 47.928C180.26 43.976 180.45 41.1387 180.83 39.416C181.236 37.6933 182.198 36.452 183.718 35.692C185.238 34.932 187.784 34.552 191.356 34.552C194.928 34.552 197.474 34.932 198.994 35.692C200.54 36.452 201.502 37.6933 201.882 39.416C202.288 41.1387 202.49 43.976 202.49 47.928C202.49 51.88 202.288 54.7173 201.882 56.44C201.502 58.1627 200.54 59.404 198.994 60.164C197.474 60.924 194.928 61.304 191.356 61.304ZM191.356 56.63C193.358 56.63 194.7 56.4907 195.384 56.212C196.094 55.9333 196.537 55.262 196.714 54.198C196.917 53.1087 197.018 51.0187 197.018 47.928C197.018 44.8373 196.917 42.76 196.714 41.696C196.537 40.6067 196.094 39.9227 195.384 39.644C194.7 39.3653 193.358 39.226 191.356 39.226C189.355 39.226 188.012 39.3653 187.328 39.644C186.644 39.9227 186.201 40.6067 185.998 41.696C185.796 42.7853 185.694 44.8627 185.694 47.928C185.694 50.9933 185.796 53.0707 185.998 54.16C186.201 55.2493 186.644 55.9333 187.328 56.212C188.012 56.4907 189.355 56.63 191.356 56.63ZM208 61V34.856H213.396V56.098H224.454V61H208ZM238.856 61.304C235.284 61.304 232.738 60.924 231.218 60.164C229.698 59.404 228.736 58.1627 228.33 56.44C227.95 54.7173 227.76 51.88 227.76 47.928C227.76 43.976 227.95 41.1387 228.33 39.416C228.736 37.6933 229.698 36.452 231.218 35.692C232.738 34.932 235.284 34.552 238.856 34.552C242.428 34.552 244.974 34.932 246.494 35.692C248.04 36.452 249.002 37.6933 249.382 39.416C249.788 41.1387 249.99 43.976 249.99 47.928C249.99 51.88 249.788 54.7173 249.382 56.44C249.002 58.1627 248.04 59.404 246.494 60.164C244.974 60.924 242.428 61.304 238.856 61.304ZM238.856 56.63C240.858 56.63 242.2 56.4907 242.884 56.212C243.594 55.9333 244.037 55.262 244.214 54.198C244.417 53.1087 244.518 51.0187 244.518 47.928C244.518 44.8373 244.417 42.76 244.214 41.696C244.037 40.6067 243.594 39.9227 242.884 39.644C242.2 39.3653 240.858 39.226 238.856 39.226C236.855 39.226 235.512 39.3653 234.828 39.644C234.144 39.9227 233.701 40.6067 233.498 41.696C233.296 42.7853 233.194 44.8627 233.194 47.928C233.194 50.9933 233.296 53.0707 233.498 54.16C233.701 55.2493 234.144 55.9333 234.828 56.212C235.512 56.4907 236.855 56.63 238.856 56.63ZM265.494 50.512V46.028H274.956V60.43C273.613 60.6833 272.131 60.886 270.51 61.038C268.888 61.2153 267.457 61.304 266.216 61.304C262.922 61.304 260.478 60.962 258.882 60.278C257.311 59.5687 256.222 58.2893 255.614 56.44C255.006 54.5907 254.702 51.7533 254.702 47.928C254.702 44.3053 255.006 41.5693 255.614 39.72C256.222 37.8453 257.336 36.5153 258.958 35.73C260.579 34.9447 262.998 34.552 266.216 34.552C267.381 34.552 268.521 34.6153 269.636 34.742C270.776 34.8687 272.144 35.046 273.74 35.274L274.842 35.426V39.796L273.436 39.644C271.029 39.3653 269.332 39.226 268.344 39.226C265.658 39.226 263.796 39.3653 262.758 39.644C261.744 39.9227 261.048 40.6447 260.668 41.81C260.313 42.95 260.136 44.9893 260.136 47.928C260.136 50.588 260.275 52.5133 260.554 53.704C260.832 54.8693 261.39 55.6673 262.226 56.098C263.087 56.5287 264.48 56.744 266.406 56.744C267.824 56.744 268.952 56.706 269.788 56.63V50.512H265.494ZM280.919 61V34.856H286.315V61H280.919ZM292.572 61V34.856H310.546V39.53H297.968V45.458H308.76V50.132H297.968V56.326H310.546V61H292.572ZM325.036 61.304C321.312 61.304 318.12 61.1013 315.46 60.696V56.174C318.576 56.478 321.236 56.63 323.44 56.63C324.732 56.63 325.732 56.5793 326.442 56.478C327.176 56.3513 327.721 56.1487 328.076 55.87C328.405 55.6167 328.608 55.3127 328.684 54.958C328.785 54.6033 328.836 54.0967 328.836 53.438C328.836 52.7033 328.785 52.1713 328.684 51.842C328.582 51.4873 328.38 51.234 328.076 51.082C327.772 50.9047 327.265 50.778 326.556 50.702L320.97 50.056C319.298 49.828 318.006 49.3973 317.094 48.764C316.182 48.1053 315.548 47.2693 315.194 46.256C314.864 45.2173 314.7 43.938 314.7 42.418C314.7 40.1887 315.105 38.504 315.916 37.364C316.726 36.1987 317.816 35.4387 319.184 35.084C320.552 34.7293 322.312 34.552 324.466 34.552C327.784 34.552 330.622 34.8053 332.978 35.312V39.72C330.52 39.3907 328.05 39.226 325.568 39.226C323.288 39.226 321.78 39.416 321.046 39.796C320.64 39.9987 320.387 40.2647 320.286 40.594C320.184 40.9233 320.134 41.4173 320.134 42.076C320.134 42.836 320.184 43.3807 320.286 43.71C320.387 44.0393 320.602 44.28 320.932 44.432C321.286 44.5587 321.869 44.6727 322.68 44.774L328.684 45.496C329.849 45.6227 330.812 45.8633 331.572 46.218C332.332 46.5473 332.927 47.1047 333.358 47.89C333.966 48.9793 334.27 50.664 334.27 52.944C334.27 55.3507 333.89 57.162 333.13 58.378C332.37 59.594 331.344 60.392 330.052 60.772C328.785 61.1267 327.113 61.304 325.036 61.304Z" fill="white"/>
</svg>
